# xmcd
#
# Track frame offsets: 
#        150
#        30667
#        61865
#        86522
#        106953
#        142205
#        156642
#        184912
#        199749
#
# Disc length: 2907 seconds
#
# Revision: 0
# Processed by: cddbd v1.5.2PL0 Copyright (c) Steve Scherf et al.
# Submitted via: ExactAudioCopy v1.0b4
#
DISCID=7f0b5909
DTITLE=Big Smokey Smothers With The Crowns - That's Alright
DYEAR=2016
DGENRE=Blues
TTITLE0=That's Alright
TTITLE1=I Need Your Lovin'
TTITLE2=Take A Little Walk With Me
TTITLE3=Sugar Pie
TTITLE4=Can't Hold On Much Longer
TTITLE5=41st Street Boogie
TTITLE6=Black Nights
TTITLE7=Hard Hearted Woman
TTITLE8=Greasy Gravy
EXTD=
EXTT0=
EXTT1=
EXTT2=
EXTT3=
EXTT4=
EXTT5=
EXTT6=
EXTT7=
EXTT8=
PLAYORDER=
